<?xml version="1.0" encoding="UTF-8" standalone="no"?>
<svg
   width="356"
   height="356"
   viewBox="0 0 94.191661 94.191673"
   version="1.1"
   id="svg1"
   sodipodi:docname="openfilebot_try_svg2.svg"
   inkscape:version="1.4.2 (ebf0e940d0, 2025-05-08)"
   xmlns:inkscape="http://www.inkscape.org/namespaces/inkscape"
   xmlns:sodipodi="http://sodipodi.sourceforge.net/DTD/sodipodi-0.dtd"
   xmlns="http://www.w3.org/2000/svg"
   xmlns:svg="http://www.w3.org/2000/svg">
  <sodipodi:namedview
     id="namedview5"
     pagecolor="#ffffff"
     bordercolor="#000000"
     borderopacity="0.25"
     inkscape:showpageshadow="2"
     inkscape:pageopacity="0.0"
     inkscape:pagecheckerboard="0"
     inkscape:deskcolor="#d1d1d1"
     inkscape:zoom="2.7111528"
     inkscape:cx="194.56668"
     inkscape:cy="240.11925"
     inkscape:window-width="2226"
     inkscape:window-height="1223"
     inkscape:window-x="0"
     inkscape:window-y="0"
     inkscape:window-maximized="1"
     inkscape:current-layer="svg1" />
  <defs
     id="defs1">
    <linearGradient
       id="bgGradient"
       x1="47.095831"
       y1="0"
       x2="47.095831"
       y2="94.191673"
       gradientUnits="userSpaceOnUse">
      <stop
         offset="0"
         stop-color="#0f62d6"
         id="stop1" />
      <stop
         offset="0.45"
         stop-color="#1a4fc9"
         id="stop2" />
      <stop
         offset="1"
         stop-color="#1e1f6b"
         id="stop3" />
    </linearGradient>
    <linearGradient
       id="edgeGradient"
       x1="47.095831"
       y1="0"
       x2="47.095831"
       y2="94.191673"
       gradientUnits="userSpaceOnUse">
      <stop
         offset="0"
         stop-color="#7eaaf8"
         stop-opacity="0.65"
         id="stop4" />
      <stop
         offset="1"
         stop-color="#0a1036"
         stop-opacity="0.9"
         id="stop5" />
    </linearGradient>
  </defs>
  <rect
     id="background"
     x="0.75"
     y="0.75"
     width="92.691661"
     height="92.691673"
     rx="11.5"
     ry="11.5"
     fill="url(#bgGradient)"
     stroke="url(#edgeGradient)"
     stroke-width="1.5" />
  <path
     id="path1"
     style="display:inline;fill:#ffffff;stroke-width:0.264583"
     d="m 52.017048,79.262725 c -0.0723,-0.53915 -0.139886,-1.318524 0.01655,-1.886074 0.15671,-0.56756 0.503441,-1.821117 0.503441,-1.821117 0,0 -2.493311,1.71396 -9.894691,1.14624 -15.123283,-1.83262 -24.99354,-15.224836 -24.94634,-28.921786 0.05,-14.5101 10.340992,-25.127158 22.441902,-27.948718 1.21875,-0.28418 2.50896,-0.51669 2.86713,-0.51669 h 0.65121 v 4.7625 L 55.10297,17.03973 43.64595,9.7755205 43.65625,15.08125 h -0.92884 c -0.51087,0 -2.03065,0.23685 -3.37344,0.54346 C 33.41944,16.9798 13.94708,24.15574 13.71448,47.36463 13.48189,70.57352 31.785745,78.81725 39.233551,80.097602 46.681357,81.377954 52.306706,79.88838 52.306706,79.88838 52.203164,79.6778 52.078188,79.487777 52.017048,79.262725 Z M 62.69428,77.22535 61.74614,75.89326 58.60521,76.71475 57.33728,75.44921 57.991,72.12641 56.77561,71.29807 54.76396,79.1993 Z M 72.7622,61.252831 c -1.66972,-1.67447 -3.1654,-3.0445 -3.32374,-3.0445 -0.33487,0 -11.49471,11.25695 -11.49471,11.594729 0,0.12462 0.26789,0.349011 0.59531,0.49865 0.95129,0.43476 3.33952,2.69998 4.49344,4.26198 l 1.06184,1.43736 5.85186,-5.85186 5.85186,-5.85186 z m -9.99168,-0.595191 6.8149,-6.81112 V 51.52951 49.212501 H 48.68333 27.78125 v 7.25882 7.25881 l 0.28142,0.744829 c 0.37182,0.98412 1.51068,2.17866 2.4967,2.61878 l 0.79375,0.3543 12.30126,0.0103 12.30125,0.0104 z m 15.65782,0.94265 0.94666,-1.105959 v -1.16229 -1.1623 l -1.92723,-1.96508 -1.92722,-1.96508 h -1.11472 -1.11472 l -1.0591,0.956829 c -0.5825,0.52626 -1.05909,1.07126 -1.05909,1.21112 0,0.30157 5.81514,6.29872 6.10756,6.29872 0.11066,0 0.6272,-0.49768 1.14786,-1.10596 z m 1.96524,-9.54352 c 1.33477,-9.5522 -2.2138,-20.3985 -8.80067,-26.89943 l -1.45223,-1.43329 1.27644,4.225841 c 0.56254,1.86238 0.62719,3.87534 0.62775,4.279789 5.3e-4,0.40445 1.90558,2.668351 3.34115,7.50733 1.43556,4.83898 0.9217,7.55063 0.93423,11.85925 l 0.46021,0.146071 c 0.25312,0.0803 1.00454,0.67508 1.66982,1.32166 0.66528,0.64658 1.30604,1.17559 1.42393,1.17559 0.11788,0 0.35159,-0.98226 0.51935,-2.182811 z m -46.98815,-6.0907 c 0.36295,-0.47585 1.74416,-2.11296 3.06935,-3.638019 1.32519,-1.525061 2.73104,-3.134211 2.73104,-3.134211 l -7.51887,0.0152 7.34931,-1.97223 c 0,0 -8.58486,-5.75693 -8.65794,-5.75134 -1.07497,0.0823 -2.40766,0.72202 -2.92729,1.375481 -0.56067,0.61652 -0.72811,1.145029 -0.72811,1.909849 0,0.525081 0.23812,1.81399 0.52916,2.86425 l 0.54362,1.54821 -0.0145,4.00469 v 3.643341 h 2.48214 2.48214 z m 17.42291,-6.758789 h -6.39681 l -6.23716,7.62397 h 6.22333 z m 11.72387,0 h -6.15507 l -6.47291,7.62397 h 6.31352 z m 7.03321,0 h -1.51294 l -6.15998,7.62397 h 7.67292 z m -19.32084,-4.79212 -7.86625,-5.68591 -6.0886,1.46472 8.00798,5.77716 z m 11.57708,-2.8242 -8.51871,-5.83431 -5.69795,1.48875 8.12027,5.98673 z m 6.71768,-1.75155 -0.4524,-2.35747 c -0.25515,-1.32961 -0.75509,-2.59974 -0.90019,-2.87087 -0.42653,-0.79697 -1.6076,-1.59283 -2.35337,-1.58579 -1.07764,0.0102 -5.77851,1.33003 -5.77851,1.33003 l 8.25708,5.88895 z"
     sodipodi:nodetypes="ccccssscccccscczccsccccccscssscccscsccccccssccccscccccccsssscscscsccssccsccccccsccccccsccccccccccccccccccccccccccscccccs" />
</svg>
